<?xml version="1.0" encoding="UTF-8"?>
<!DOCTYPE svg PUBLIC "-//W3C//DTD SVG 1.1//EN" "http://www.w3.org/Graphics/SVG/1.1/DTD/svg11.dtd">
<!-- Creator: CorelDRAW X8 -->
<svg xmlns="http://www.w3.org/2000/svg" xml:space="preserve" width="100mm" height="59.9655mm" version="1.1" style="shape-rendering:geometricPrecision; text-rendering:geometricPrecision; image-rendering:optimizeQuality; fill-rule:evenodd; clip-rule:evenodd"
viewBox="0 0 10000 5997"
 xmlns:xlink="http://www.w3.org/1999/xlink">
 <defs>
  <style type="text/css">
   <![CDATA[
    .fil1 {fill:#0F1F49;fill-rule:nonzero}
    .fil0 {fill:url(#id0)}
   ]]>
  </style>
  <linearGradient id="id0" gradientUnits="userSpaceOnUse" x1="5044.65" y1="3925.37" x2="5044.73" y2="-744.59">
   <stop offset="0" style="stop-opacity:1; stop-color:#176AE0"/>
   <stop offset="1" style="stop-opacity:1; stop-color:#47D6F6"/>
  </linearGradient>
 </defs>
 <g id="Layer_x0020_1">
  <metadata id="CorelCorpID_0Corel-Layer"/>
  <g id="_49381798512">
   <path class="fil0" d="M5645 252c-93,-37 -190,-65 -289,-85 -113,-22 -229,-33 -345,-33 -50,0 -100,2 -150,6 -31,2 -62,6 -93,10l0 1666 -1 0c-2,21 -14,40 -33,51l-953 550c-31,18 -72,7 -90,-24 -19,-32 -8,-73 24,-91l919 -531 0 -1680c0,-37 30,-67 67,-67l5 1c47,-8 96,-14 144,-18 53,-5 107,-7 161,-7 125,0 249,12 371,37 121,24 239,59 352,106 27,10 45,35 45,64l0 1016 985 568c-11,-195 -54,-386 -128,-567 -80,-197 -197,-378 -342,-534 -53,7 -107,-17 -136,-66 -37,-65 -15,-148 50,-185 65,-38 147,-15 185,49 22,39 23,83 7,121 152,165 274,357 360,565 93,227 140,469 140,715l0 7 0 0 0 12c-1,37 -30,67 -67,67 -13,0 -25,-4 -35,-10l-1114 -643c-23,-11 -39,-35 -39,-61l0 -1009zm-207 3477c25,31 63,51 106,51 75,0 136,-61 136,-136 0,-75 -61,-135 -136,-135 -58,0 -107,37 -127,88 -210,50 -429,61 -643,32 -193,-26 -381,-85 -555,-173l985 -569 877 506c23,16 54,15 77,-3 99,-75 190,-160 272,-253 80,-92 152,-192 213,-298l0 0 4 -6c27,-46 52,-94 75,-143 20,-44 39,-88 56,-134l2 -3c18,-31 8,-71 -22,-90 -2,-1 -4,-2 -6,-4l-1450 -837 0 -1062c0,-37 -30,-67 -67,-67 -37,0 -67,30 -67,67l0 1100c0,26 15,49 38,61l1433 827c-12,29 -25,57 -38,86 -21,45 -45,89 -70,133l0 1 0 1c-58,99 -126,193 -202,280 -66,76 -139,145 -217,208l-875 -504c-20,-12 -45,-12 -66,0l-1117 645c-12,6 -22,15 -28,26 -19,32 -8,73 24,91l16 10 6 3c211,121 443,200 684,233 227,31 459,20 682,-32zm-2233 -2394c-35,8 -67,30 -87,64 -37,65 -15,148 50,185 64,37 147,15 185,-50 31,-53 21,-119 -20,-161 62,-202 160,-392 290,-559 119,-155 263,-288 427,-394l0 1137 -880 508c-24,14 -37,43 -32,70 16,122 44,242 83,359 40,118 92,231 154,339 27,47 56,93 87,137 27,40 57,78 87,116l2 3c19,32 59,43 91,25l1455 -840 920 531c31,18 72,7 91,-25 18,-31 7,-72 -25,-90l-953 -551c-21,-12 -46,-11 -67,1l-1436 829c-19,-24 -38,-50 -56,-75 -28,-41 -55,-84 -80,-127 -58,-100 -106,-206 -144,-316 -32,-95 -56,-193 -71,-293l874 -505c22,-12 34,-36 33,-61l0 -1288c1,-12 -2,-24 -9,-35 -18,-32 -59,-44 -90,-25l-20 11c-212,122 -397,284 -547,477 -139,181 -245,385 -312,603z"/>
   <path class="fil1" d="M306 4956c-218,0 -306,91 -306,273l0 495c0,176 95,262 304,262l248 0c210,0 304,-86 304,-262l0 -495c0,-182 -87,-273 -304,-273l-246 0zm217 144c115,0 158,48 158,151l0 443c0,111 -50,151 -158,151l-187 0c-108,0 -158,-40 -158,-151l0 -443c0,-103 41,-151 158,-151l187 0zm625 886l176 0 0 -770c4,-60 61,-122 169,-122l137 0c115,0 169,44 169,155l0 737 176 0 0 -778c0,-167 -88,-252 -291,-252l-137 0c-113,0 -180,25 -234,99l0 -86 -30 0 -135 32 0 985zm1966 -1491l-31 0 -145 32 0 524c-45,-68 -112,-95 -225,-95l-149 0c-218,0 -304,97 -304,277l0 497c0,168 86,256 289,256l151 0c133,0 209,-40 250,-112l13 112 151 0 0 -1491zm-176 1197c-2,103 -72,153 -169,153l-166 0c-106,0 -165,-42 -165,-157l0 -433c0,-113 59,-155 169,-155l162 0c102,0 163,50 169,141l0 451zm804 155c-120,0 -160,-52 -160,-151l0 -137 331 0c259,0 309,-74 309,-238l0 -115c0,-199 -90,-250 -343,-250l-126 0c-252,0 -349,51 -349,250l0 508c0,204 97,272 340,272l140 0c261,0 340,-70 340,-274l0 -42 -165 0 0 36c0,97 -45,141 -157,141l-160 0zm166 -753c111,0 147,42 147,120l0 95c0,77 -36,113 -151,113l-322 0 0 -206c0,-80 36,-122 146,-122l180 0zm1047 892l347 -1017 -185 0 -270 844 -275 -844 -185 0 349 1017 219 0zm610 -870l0 870 178 0 0 -1017 -311 0 0 147 133 0zm-14 -375l198 0 0 -194 -198 0 0 194zm986 369c115,0 158,48 158,153l0 52 164 0 0 -90c0,-174 -77,-263 -282,-263l-238 0c-221,0 -307,91 -307,273l0 489c0,176 92,262 304,262l235 0c200,0 288,-74 288,-252l0 -90 -164 0 0 60c0,103 -39,135 -160,135l-167 0c-108,0 -158,-40 -158,-151l0 -425c0,-105 41,-153 158,-153l169 0zm914 737c-120,0 -160,-52 -160,-151l0 -137 331 0c259,0 309,-74 309,-238l0 -115c0,-199 -91,-250 -343,-250l-126 0c-253,0 -350,51 -350,250l0 508c0,204 97,272 341,272l140 0c261,0 340,-70 340,-274l0 -42 -165 0 0 36c0,97 -45,141 -157,141l-160 0zm166 -753c111,0 147,42 147,120l0 95c0,77 -36,113 -151,113l-322 0 0 -206c0,-80 36,-122 146,-122l180 0zm574 903l198 0 0 -194 -198 0 0 194zm1134 -11l151 0 0 -808c0,-145 -81,-222 -254,-222l-302 0c-167,0 -248,77 -248,222l0 71 164 0 0 -31c0,-82 43,-114 129,-114l211 0c84,0 124,32 124,114l0 168 -380 0c-190,0 -282,78 -282,222l0 147c0,163 92,231 282,231l133 0c123,0 211,-16 259,-104l13 104zm-372 -147c-94,0 -151,-20 -151,-115l0 -78c0,-81 50,-123 151,-123l347 0 0 161c0,111 -56,155 -180,155l-167 0zm862 -723l0 870 178 0 0 -1017 -311 0 0 147 133 0zm-13 -375l198 0 0 -194 -198 0 0 194z"/>
  </g>
 </g>
</svg>
